<svg id="Camada_1" data-name="Camada 1" xmlns="http://www.w3.org/2000/svg" viewBox="0 0 470 160"><defs><style>.cls-1,.cls-3{fill:#fff;}.cls-1,.cls-2{fill-rule:evenodd;}.cls-2{fill:#cdaf41;}.cls-3{opacity:0.5;}</style></defs><path class="cls-1" d="M141.51,92a22.78,22.78,0,0,0,12.32-20.18,17,17,0,0,0-4.67-12.33c-3.53-3.65-7.81-5-15.76-5H107.3L107,56.13,96.87,120.71c-.75,4.72-.13,13,10.26,13.07h17.92c15.27,0,25.93-10.61,25.93-25.81,0-7.38-3.58-13.16-9.47-15.93m-9.32,27.49c-2.83,2-4.69,2.52-11.59,2.52H109.93l3.52-22.78h11.26c10.89,0,12.36,4.8,12.36,9.51s-1.78,8.62-4.88,10.75M125.4,86.85h-10l3.28-20.61H130c6.5,0,7.62.6,8.62,2a7.28,7.28,0,0,1,1.22,4.58c0,8.41-5.79,14.07-14.41,14.07"/><path class="cls-1" d="M192.32,99.71c11.33-2.18,20.13-13.1,20.13-25.68s-7.87-19.52-22.15-19.52H165.57l-.26,1.62-10.44,67.08c-.47,3.44-3.06,10.58,9.4,10.57h2.08l.25-1.62,4.78-30.72h7.2l15.24,31.26.53,1.08h15.07L208,131Zm-19.08-10L177,66.24h10.58c9.78,0,11.57,2.63,11.57,7.79,0,9.38-6.4,15.68-15.91,15.68Z"/><path class="cls-1" d="M257.13,92a22.78,22.78,0,0,0,12.32-20.18,17,17,0,0,0-4.67-12.33c-3.53-3.65-7.81-5-15.77-5h-26.1l-.25,1.62L212.5,120.56c-.66,4.68-.24,13.18,10.25,13.22h17.92c15.27,0,25.93-10.61,25.93-25.81,0-7.38-3.58-13.16-9.47-15.93m-9.32,27.49c-2.83,2-4.69,2.52-11.6,2.52H225.55l3.51-22.78h11.27c10.89,0,12.36,4.8,12.36,9.51s-1.78,8.62-4.88,10.75M241,86.85H231l3.28-20.61h11.27c6.5,0,7.61.6,8.62,2a7.28,7.28,0,0,1,1.22,4.58c0,8.41-5.79,14.07-14.42,14.07"/><path class="cls-1" d="M10.86,54.5,9.71,61.82a80.67,80.67,0,0,1,41.89,23l16.73-11s1.93-1.3,2.83-.22c0,0,.87.85-.81,2.66L56.61,90.53A80.27,80.27,0,0,1,74,133.78h7.82L94.23,54.49Z"/><path class="cls-1" d="M26.87,111l-.76-.92L44,90A71.73,71.73,0,0,0,8.32,70.73L1,117.33c-1.28,8.74.31,16.45,14.88,16.45H65A71.3,71.3,0,0,0,50.29,97Z"/><polygon class="cls-2" points="406.15 1.48 408.97 9.46 417.44 9.68 410.71 14.83 413.12 22.95 406.15 18.15 399.17 22.95 401.58 14.83 394.86 9.68 403.32 9.46 406.15 1.48"/><path class="cls-1" d="M376.4,136.9c0,8.71-2,12.74-5.68,15.4,4.58,4.78,16.53,6.87,26.32,4-6.33-3.91-8.42-10.15-8.44-17.94a51.1,51.1,0,0,1-12.2-1.47m44.11,1.65v-7.88c-3.38-5.1-7.39-11-12.17-14.86v21.4c0,7.75-2,12.56-5.73,15.09,4.58,4.78,16.54,6.87,26.32,4C422.49,152.4,420.51,145.14,420.51,138.55Zm37.75-61.36c13.62-6.83,11.07-23.89,9.36-28.22-2.24,4-6.36,6.57-14,6.57h-8.89A80.29,80.29,0,0,1,450,65.23C457.14,65.26,459.21,72.8,458.26,77.19Zm-22.58,31.07c7.47,0,10.43,5.07,9.81,11.95,13.15-6.94,10.92-22.34,9.21-26.66-2.13,2.69-5.11,5-12.35,5H420.51V65.23h6.62a29.89,29.89,0,0,0-4.45-9.69h-2.86a44.56,44.56,0,0,1-16.28-2.88l4.8,12.57V98.51c5.82,1.91,9.8,5.36,14.08,9.75ZM423.1,95.94H433c11.07-11.23,9.13-25.32,16.59-25.32-10.42-25.8-24.9-38.28-57.16-37.46-9.74.14-14.38.21-22.4-2.67l5.83,15.23a58.56,58.56,0,0,1,19.66-3.52c21,0,35.36,11.5,35.36,32.59C430.91,82.65,428.46,90.41,423.1,95.94Zm-67.61-5.09c0,18.32,11.73,33.11,30.15,35.43a37.93,37.93,0,0,0,20-2.9v9.49a52.66,52.66,0,0,1-19.56,2.76c-26.5-1.45-44.32-22.11-50-46.85,5,0,6.87-7.09,11.2-15C353.66,62.07,364.4,52.4,377,48.06a58.42,58.42,0,0,1,18.54-3.13c1.64,0,3.25.07,4.8.21,2.24,5.59,1.94,18.4-.79,24.35-2.94-7.91-9.41-11.19-16.24-11.2C366.32,58.29,355.49,74.06,355.49,90.85ZM388.6,61.74V97.82c8.73,0,19.27,1.36,27.08,7.83,11.36,9.4,17.56,21.59,24,28.57,7,7.66,15.79,7,23.34,1.51-1,11.25-13.28,20-18.84,21.07-9.53-6.65-19.52-26-27.25-35.9-7.33-9.39-13.87-13.15-28.29-13.15V123.9a35.45,35.45,0,0,1-12.2-2.76V62A21.74,21.74,0,0,1,388.6,61.74Z"/><rect class="cls-3" x="304.8" y="33.31" width="2.86" height="114.58" rx="1.43"/></svg>