<svg xmlns="http://www.w3.org/2000/svg" id="Camada_1" data-name="Camada 1" viewBox="0 0 478 141.02"><defs><style>.cls-1{fill:#fff;fill-rule:evenodd;}</style></defs><path class="cls-1" d="M250.46,66.77c13.43-7.16,21.92-20.6,21.92-35.88,0-8.9-2.87-16.49-8.32-21.93C257.79,2.46,250.18,0,236,0H189.62l-.45,2.89-18.1,114.84c-1.34,8.4-.22,23.17,18.24,23.25H221.2c27.14,0,46.1-18.87,46.1-45.9,0-13.13-6.37-23.42-16.84-28.35m-16.57,48.9c-5,3.47-8.34,4.48-20.61,4.48h-19l6.26-40.51h20c19.37,0,22,8.54,22,16.9s-3.16,15.34-8.68,19.13M221.81,57.55H204.07l5.82-36.65h20.05c11.56,0,13.55,1.06,15.33,3.48,1.54,2.16,2.18,4.53,2.18,8.14,0,15-10.3,25-25.64,25"></path><path class="cls-1" d="M340.83,80.41c20.14-3.86,35.79-23.29,35.79-45.66S362.63,0,337.23,0h-44l-.45,2.89-18.57,119.3c-.84,6.1-5.45,18.8,16.72,18.79h3.69l.46-2.9,8.49-54.62h12.81l27.11,55.6.94,1.92h26.79l-2.49-5ZM306.89,62.63l6.63-41.73h18.83c17.38,0,20.57,4.66,20.57,13.85,0,16.68-11.37,27.88-28.3,27.88Z"></path><path class="cls-1" d="M456.08,66.77C469.51,59.61,478,46.17,478,30.89c0-8.9-2.87-16.48-8.31-21.93C463.41,2.46,455.8,0,441.65,0H395.24l-.46,2.89L376.72,117.51c-1.19,8.32-.42,23.42,18.22,23.5h31.88c27.14,0,46.1-18.88,46.1-45.9,0-13.13-6.37-23.42-16.84-28.35m-16.57,48.9c-5,3.47-8.34,4.48-20.62,4.48h-19l6.25-40.51h20c19.37,0,22,8.54,22,16.9s-3.17,15.34-8.68,19.13M427.43,57.55H409.69l5.83-36.65h20c11.56,0,13.55,1.06,15.33,3.48,1.54,2.16,2.18,4.53,2.18,8.14,0,15-10.31,25-25.64,25"></path><path class="cls-1" d="M18.1,0l-2,13a143.36,143.36,0,0,1,74.5,40.9L120.32,34.4s3.43-2.31,5-.38c0,0,1.56,1.51-1.44,4.73L99.48,64.09A142.87,142.87,0,0,1,130.4,141h13.91L166.37,0Z"></path><path class="cls-1" d="M46.59,100.45l-1.36-1.64L77,63.06A127.4,127.4,0,0,0,13.59,28.88l-13,82.88C-1.64,127.3,1.19,141,27.09,141H114.3A126.82,126.82,0,0,0,88.24,75.67Z"></path></svg>