<svg id="Camada_1" data-name="Camada 1" xmlns="http://www.w3.org/2000/svg" viewBox="0 0 893.65 394.09"><defs><style>.cls-1,.cls-2{fill:#fff;}.cls-1{fill-rule:evenodd;}.cls-3{fill:#d41116;}</style></defs><path class="cls-1" d="M476.84,119.6c24.05-12.82,39.27-36.9,39.27-64.27,0-15.95-5.15-29.53-14.9-39.28C490,4.41,476.35.05,451,.05H367.86l-.81,5.18-32.42,205.7c-2.39,15-.4,41.5,32.68,41.64v0h57.12c48.62,0,82.58-33.8,82.58-82.22,0-23.52-11.41-42-30.17-50.77m-29.67,87.59c-9,6.21-15,8-36.94,8h-34l11.22-72.57h35.88c34.69,0,39.37,15.3,39.37,30.27s-5.66,27.48-15.54,34.27M425.52,103.08H393.75l10.43-65.65h35.91c20.69,0,24.26,1.91,27.46,6.24,2.76,3.87,3.9,8.11,3.9,14.58,0,26.81-18.46,44.83-45.93,44.83"/><path class="cls-1" d="M638.7,144c36.08-6.92,64.12-41.72,64.12-81.78S677.77.05,632.27.05H553.48l-.82,5.18L519.4,218.92c-1.5,10.93-9.76,33.68,29.94,33.65l3.85,0H556l.81-5.19L572,149.56h23l48.56,99.59,1.68,3.44h48l-4.46-8.88Zm-60.79-31.85L589.8,37.43h33.72c31.14,0,36.84,8.35,36.84,24.81,0,29.87-20.37,49.93-50.68,49.93Z"/><path class="cls-1" d="M845.15,119.6c24.05-12.82,39.26-36.9,39.26-64.27,0-15.95-5.15-29.52-14.89-39.28C858.28,4.41,844.65.05,819.3.05H736.16l-.81,5.18L703,210.48c-2.13,14.91-.76,42,32.64,42.09v0h57.09c48.62,0,82.58-33.81,82.58-82.22,0-23.52-11.4-42-30.16-50.77m-29.68,87.59c-9,6.21-15,8-36.94,8h-34l11.21-72.57h35.88c34.7,0,39.37,15.3,39.37,30.27s-5.67,27.48-15.54,34.27M793.82,103.08H762.05l10.44-65.65h35.9c20.7,0,24.26,1.91,27.46,6.24,2.76,3.87,3.91,8.12,3.91,14.58,0,26.81-18.47,44.83-45.94,44.83"/><path class="cls-1" d="M60.64,0,57,23.35A257,257,0,0,1,190.44,96.61l53.29-35s6.14-4.14,9-.68c0,0,2.79,2.7-2.57,8.47L206.41,114.8a255.87,255.87,0,0,1,55.37,137.79h24.93L326.22,0Z"/><path class="cls-1" d="M111.67,179.93l-2.43-3,57-64A228.22,228.22,0,0,0,52.55,51.73L29.33,200.18c-4,27.85,1,52.4,47.41,52.4H233a227.15,227.15,0,0,0-46.69-117Z"/><path class="cls-2" d="M62.32,362.14l4.33-13.29H81.2L84.37,333H71.6l4.65-14.44H59L54.31,333h-10l4.64-14.44H31.64L27,333H12.65L9.49,348.85H22l-4.33,13.29H3.16L0,378H12.76L8.12,392.41H25.41L30.06,378h10l-4.64,14.45h17.3L57.37,378H71.71l3.16-15.82Zm-17.29,0H35l4.32-13.29h10Z"/><path class="cls-3" d="M198.32,318.59l-42.09,66.07,13.21-66.07H145.19L138.33,353l-21.2-34.38H96.68L81.91,392.41h24.26L113,358l21.2,34.38h43.33l7.38-12.87h28.16l2.42,12.87H240.3l-17.51-73.82Zm-3.16,43L206,342.74l3.59,18.87Z"/><path class="cls-3" d="M343.32,318.59l-37.58,59L293,365.41C288,371.52,282.38,374,276.58,374c-9.18,0-15.19-5.8-15.19-14.45,0-13.18,8.22-22.46,19.93-22.46,6.75,0,11.6,3.16,14.76,8.65l17.93-14c-5.37-9.49-17-14.76-31.11-14.76-27.31,0-46.61,18.24-46.61,44.19,0,19.61,15,33,37.86,33,9.87,0,18.34-2,25.67-7.24l-3.54,5.56h26.26l7.38-12.87h28.16l2.43,12.87h24.78l-17.51-73.82Zm-3.17,43L351,342.74l3.58,18.87Z"/><path class="cls-3" d="M427.79,316.9c-27.1,0-46.51,18.14-46.51,44.19,0,19.4,14.45,33,37.44,33,27.1,0,46.51-18.13,46.51-44.18,0-19.41-14.45-33-37.44-33m-7,57.05c-9.07,0-14.45-5.8-14.45-14.34,0-12.13,7.07-22.57,19.3-22.57,9.07,0,14.45,5.8,14.45,14.34,0,12.13-7.07,22.57-19.3,22.57"/><path class="cls-2" d="M528.49,354.44c8.12-3.48,13.18-9.7,13.18-18.24,0-11.18-9-17.61-26.47-17.61H476.08l-14.77,73.82h42.61c18.87,0,34.48-7.17,34.48-23.52,0-6.75-3.58-11.71-9.91-14.45M505.29,375h-16l2.32-11.6h16c3.27,0,6.12,1.58,6.12,4.85,0,4.53-3.59,6.75-8.44,6.75M507.5,347H494.85l2.21-11h12.13c4.11,0,6.54,1.47,6.54,4.53,0,4-2.53,6.43-8.23,6.43"/><path class="cls-2" d="M616.12,342.84c0-15.29-11.18-24.25-30.69-24.25H552.32l-14.77,73.82h24.89l3.69-18.56h6.12l10.44,18.56h25.83l-12.34-21.52c12.55-4.74,19.94-14.87,19.94-28.05m-36.07,12.23H569.82l3.48-17.29h8.33c5.7,0,9.28,2.21,9.28,7.49,0,6.22-4,9.8-10.86,9.8"/><path class="cls-2" d="M678,354.44c8.12-3.48,13.18-9.7,13.18-18.24,0-11.18-9-17.61-26.47-17.61H625.6l-14.77,73.82h42.61c18.87,0,34.48-7.17,34.48-23.52,0-6.75-3.58-11.71-9.91-14.45M654.81,375h-16l2.32-11.6h16c3.27,0,6.12,1.58,6.12,4.85,0,4.53-3.59,6.75-8.44,6.75M657,347H644.37l2.21-11h12.13c4.11,0,6.54,1.47,6.54,4.53,0,4-2.53,6.43-8.23,6.43"/><polygon class="cls-3" points="722.92 337.36 758.04 337.36 761.84 318.59 701.83 318.59 687.07 392.41 711.95 392.41 716.7 368.79 747.39 368.79 751.18 350.01 720.39 350.01 722.92 337.36"/><path class="cls-3" d="M876.14,318.59H851.67L812.53,380l1.39-6.91H780.6l10.86-54.52H766.58l-14.77,73.82h79.08l7.38-12.87h28.16l2.43,12.87h24.79Zm-27.63,43,10.86-18.87L863,361.61Z"/></svg>